<svg width="60" height="60" viewBox="0 0 60 60" fill="none" xmlns="http://www.w3.org/2000/svg">
<g clip-path="url(#clip0_1_9)">
<path d="M30 0.7425C13.425 0.7425 0 14.175 0 30.7425C0 44 8.595 55.2425 20.5125 59.205C22.0125 59.4875 22.5625 58.56 22.5625 57.7625C22.5625 57.05 22.5375 55.1625 22.525 52.6625C14.18 54.4725 12.42 48.6375 12.42 48.6375C11.055 45.175 9.0825 44.25 9.0825 44.25C6.365 42.39 9.2925 42.4275 9.2925 42.4275C12.305 42.6375 13.8875 45.5175 13.8875 45.5175C16.5625 50.105 20.91 48.78 22.625 48.0125C22.895 46.0725 23.6675 44.75 24.525 44C17.8625 43.25 10.86 40.67 10.86 29.175C10.86 25.9 12.0225 23.225 13.9475 21.125C13.61 20.3675 12.5975 17.3175 14.21 13.185C14.21 13.185 16.7225 12.38 22.46 16.26C24.86 15.5925 27.41 15.2625 29.96 15.2475C32.51 15.2625 35.06 15.5925 37.46 16.26C43.16 12.38 45.6725 13.185 45.6725 13.185C47.285 17.3175 46.2725 20.3675 45.9725 21.125C47.885 23.225 49.0475 25.9 49.0475 29.175C49.0475 40.7 42.035 43.2375 35.36 43.975C36.41 44.875 37.385 46.715 37.385 49.525C37.385 53.54 37.3475 56.765 37.3475 57.74C37.3475 58.5275 37.8725 59.465 39.41 59.165C51.4125 55.23 60 43.98 60 30.7425C60 14.175 46.5675 0.7425 30 0.7425" fill="black"/>
</g>
<defs>
<clipPath id="clip0_1_9">
<rect width="60" height="60" fill="white"/>
</clipPath>
</defs>
</svg>
