<svg width="60" height="60" viewBox="0 0 60 60" fill="none" xmlns="http://www.w3.org/2000/svg">
<g clip-path="url(#clip0_1_7)">
<path fill-rule="evenodd" clip-rule="evenodd" d="M60 30C60 46.5685 46.5685 60 30 60C13.4315 60 0 46.5685 0 30C0 13.4315 13.4315 0 30 0C46.5685 0 60 13.4315 60 30ZM13.0781 47.5H20.3344V24.1323H13.0781V47.5ZM12.5 16.7024C12.5 19.0228 14.382 20.9447 16.7023 20.9447C19.0219 20.9447 20.9047 19.0228 20.9047 16.7024C20.9047 15.5879 20.4619 14.519 19.6738 13.7309C18.8858 12.9428 17.8169 12.5 16.7023 12.5C15.5878 12.5 14.5189 12.9428 13.7308 13.7309C12.9427 14.519 12.5 15.5879 12.5 16.7024ZM40.2516 47.5H47.5V34.6638C47.5 28.3824 46.15 23.5463 38.8063 23.5463C35.2758 23.5463 32.9094 25.4839 31.9406 27.3199H31.8391V24.1323H24.8797V47.5H32.1281V35.9294C32.1281 32.8825 32.7062 29.9371 36.4789 29.9371C40.1969 29.9371 40.2516 33.4137 40.2516 36.1247V47.5Z" fill="black"/>
</g>
<defs>
<clipPath id="clip0_1_7">
<rect width="60" height="60" fill="white"/>
</clipPath>
</defs>
</svg>
