<?xml version="1.0" encoding="utf-8"?>
<!-- Generator: Adobe Illustrator 26.3.1, SVG Export Plug-In . SVG Version: 6.00 Build 0)  -->
<svg version="1.1" id="Layer_1" xmlns="http://www.w3.org/2000/svg" xmlns:xlink="http://www.w3.org/1999/xlink" x="0px" y="0px"
	 viewBox="0 0 60 60" style="enable-background:new 0 0 60 60;" xml:space="preserve">
<path d="M30,0C13.4,0,0,13.4,0,30s13.4,30,30,30s30-13.4,30-30S46.6,0,30,0z M15.6,19.2h28.8c0.6,0,1,0.3,1.3,0.8L30.8,30.6
	c-0.5,0.3-1.1,0.3-1.5,0L14.4,20.1C14.6,19.6,15.1,19.2,15.6,19.2z M14.2,23.1l13.5,9.6c1.3,0.9,3.1,0.9,4.4,0l13.5-9.6v16.2
	c0,0.8-0.6,1.4-1.4,1.4H15.6c-0.8,0-1.4-0.6-1.4-1.4V23.1z"/>
</svg>
