<svg width="60" height="60" viewBox="0 0 60 60" fill="none" xmlns="http://www.w3.org/2000/svg">
<circle cx="30" cy="30" r="30" fill="black"/>
<path d="M13 20.6667C13 19.1939 14.1709 18 15.6154 18H44.3846C45.8291 18 47 19.1939 47 20.6667V39.3333C47 40.8061 45.8291 42 44.3846 42H15.6154C14.1709 42 13 40.8061 13 39.3333V20.6667Z" fill="white"/>
<path d="M47 20.6667V39.3333C47 40.8061 45.8291 42 44.3846 42H15.6154C14.1709 42 13 40.8061 13 39.3333V20.6667M47 20.6667C47 19.1939 45.8291 18 44.3846 18H15.6154C14.1709 18 13 19.1939 13 20.6667M47 20.6667L31.4887 31.6158C30.5931 32.248 29.4069 32.248 28.5113 31.6158L13 20.6667" stroke="black" stroke-width="2.5" stroke-linecap="round" stroke-linejoin="round"/>
</svg>
