<svg width="60" height="60" viewBox="0 0 60 60" fill="none" xmlns="http://www.w3.org/2000/svg">
<g clip-path="url(#clip0_1_4)">
<path fill-rule="evenodd" clip-rule="evenodd" d="M60 30C60 46.5685 46.5685 60 30 60C13.4315 60 0 46.5685 0 30C0 13.4315 13.4315 0 30 0C46.5685 0 60 13.4315 60 30ZM31.0754 22.1473C28.1574 23.361 22.3256 25.873 13.58 29.6833C12.1599 30.2481 11.4159 30.8005 11.3482 31.3408C11.2338 32.2537 12.3771 32.6132 13.934 33.1028C14.1458 33.1694 14.3652 33.2384 14.5901 33.3115C16.1219 33.8094 18.1824 34.3919 19.2535 34.4151C20.2252 34.4361 21.3096 34.0355 22.5069 33.2133C30.6782 27.6975 34.8963 24.9095 35.1611 24.8494C35.3479 24.807 35.6068 24.7537 35.7822 24.9096C35.9576 25.0655 35.9404 25.3608 35.9218 25.44C35.8085 25.9228 31.3206 30.0952 28.9981 32.2544C28.2741 32.9276 27.7605 33.405 27.6555 33.5141C27.4203 33.7584 27.1806 33.9894 26.9503 34.2115C25.5272 35.5833 24.4601 36.6121 27.0093 38.292C28.2344 39.0993 29.2147 39.7669 30.1927 40.4329C31.2607 41.1602 32.326 41.8857 33.7043 42.7892C34.0555 43.0194 34.3909 43.2584 34.7175 43.4913C35.9605 44.3774 37.0772 45.1735 38.4568 45.0466C39.2584 44.9728 40.0865 44.219 40.507 41.9709C41.5008 36.6579 43.4544 25.1461 43.9058 20.4024C43.9454 19.9868 43.8956 19.4549 43.8557 19.2214C43.8157 18.9879 43.7322 18.6553 43.4287 18.409C43.0693 18.1173 42.5144 18.0558 42.2662 18.0602C41.1379 18.0801 39.4067 18.682 31.0754 22.1473Z" fill="black"/>
</g>
<defs>
<clipPath id="clip0_1_4">
<rect width="60" height="60" fill="white"/>
</clipPath>
</defs>
</svg>
