<svg width="60" height="60" viewBox="0 0 60 60" fill="none" xmlns="http://www.w3.org/2000/svg">
<path d="M30 0C46.5686 0 60 13.5135 60 30.1833C60 45.2487 49.0295 57.7357 34.6875 60V38.9082H41.6777L43.0078 30.1833H34.6875V24.5214C34.6875 23.8805 34.7713 23.2439 34.966 22.6556C35.4059 21.3266 36.4117 20.2437 38.2964 19.9124C38.6848 19.8442 39.1106 19.8078 39.5764 19.8078H43.3594V12.3799C43.3594 12.3799 39.9262 11.7904 36.6439 11.7904C29.7913 11.7904 25.3125 15.9689 25.3125 23.5336V30.1833H17.6953V38.9082H25.3125V60C10.9706 57.7357 0 45.2487 0 30.1833C0 13.5135 13.4314 0 30 0Z" fill="black"/>
</svg>
